<?xml version="1.0" encoding="UTF-8"?>
<!DOCTYPE svg PUBLIC "-//W3C//DTD SVG 1.1//EN" "http://www.w3.org/Graphics/SVG/1.1/DTD/svg11.dtd">
<!-- Creator: CorelDRAW -->
<svg xmlns="http://www.w3.org/2000/svg" xml:space="preserve" width="142.621cm" height="50.8035cm" version="1.1" style="shape-rendering:geometricPrecision; text-rendering:geometricPrecision; image-rendering:optimizeQuality; fill-rule:evenodd; clip-rule:evenodd"
viewBox="0 0 27621.19 9839.01"
 xmlns:xlink="http://www.w3.org/1999/xlink"
 xmlns:xodm="http://www.corel.com/coreldraw/odm/2003">
 <defs>
  <style type="text/css">
   <![CDATA[
    .fil0 {fill:black;fill-rule:nonzero}
    .fil1 {fill:#E34B19;fill-rule:nonzero}
   ]]>
  </style>
 </defs>
 <g id="Layer_x0020_1">
  <metadata id="CorelCorpID_0Corel-Layer"/>
  <g id="_1443324505616">
   <path class="fil0" d="M3641.02 6125.08l729.18 393.75c-220.37,307.87 -499.08,554.17 -837.74,738.9 -338.66,184.72 -706.49,277.09 -1101.86,277.09 -447.23,0 -853.95,-115.05 -1221.78,-345.14 -367.83,-230.1 -661.12,-539.59 -879.87,-926.86 -218.75,-385.65 -328.94,-815.06 -328.94,-1284.97 0,-356.49 63.2,-688.67 189.59,-999.78 126.39,-309.5 299.77,-581.72 523.39,-816.68 220.37,-234.96 479.63,-418.06 774.55,-550.93 294.91,-132.87 609.27,-199.31 943.07,-199.31 395.38,0 763.2,92.36 1101.86,277.09 338.66,184.72 617.37,432.64 837.74,743.76l-729.18 393.76c-155.56,-191.21 -340.28,-338.66 -554.17,-442.37 -213.89,-103.71 -432.64,-155.56 -656.26,-155.56 -301.39,0 -573.62,79.4 -818.3,239.82 -246.3,160.42 -439.13,374.31 -581.72,640.06 -142.59,265.74 -213.89,555.79 -213.89,870.15 0,314.36 72.92,602.78 217.13,866.91 142.59,264.12 338.66,476.39 583.34,635.19 244.68,158.8 515.28,238.2 813.44,238.2 239.82,0 465.05,-55.09 675.7,-165.28 210.65,-110.19 388.89,-252.78 534.73,-427.78z"/>
   <path class="fil0" d="M5245.21 7408.43l0 -4861.17 816.68 0 0 607.65c171.76,-226.85 388.89,-408.34 651.4,-542.83 262.5,-132.87 547.69,-200.93 855.57,-200.93 187.96,0 369.45,24.31 544.45,72.92l-330.56 816.68c-132.87,-42.13 -262.5,-63.2 -388.89,-63.2 -243.06,0 -465.05,58.33 -667.6,176.62 -202.55,118.29 -364.59,278.71 -484.5,479.64 -119.91,200.93 -179.86,424.54 -179.86,670.84l0 2843.79 -816.68 0z"/>
   <path class="fil0" d="M12366.82 2547.25l816.68 0 0 4861.17 -816.68 0 -34.03 -821.54c-152.32,281.95 -361.35,510.42 -628.71,685.42 -267.36,175 -586.58,262.5 -956.03,262.5 -356.48,0 -690.29,-68.05 -1001.4,-202.55 -311.11,-134.49 -586.58,-320.84 -823.16,-559.03 -239.82,-238.2 -424.54,-512.04 -557.41,-823.16 -132.87,-311.12 -199.31,-646.54 -199.31,-1006.26 0,-346.76 64.82,-674.08 194.45,-981.96 129.63,-307.87 309.5,-578.48 542.83,-810.19 230.1,-231.72 499.08,-413.2 803.71,-544.45 304.63,-129.63 631.95,-196.07 981.96,-196.07 382.41,0 717.83,90.74 1006.26,268.99 288.43,179.86 521.76,413.2 700.01,698.39l-29.17 -831.26zm-1633.35 4195.19c320.84,0 599.54,-77.78 834.5,-236.58 234.96,-157.18 416.44,-369.45 544.45,-638.43 128.01,-268.99 191.21,-565.52 191.21,-889.59 0,-330.56 -64.82,-628.71 -194.45,-897.7 -129.63,-267.36 -311.12,-479.63 -546.07,-636.81 -234.96,-157.18 -512.04,-234.96 -829.64,-234.96 -320.84,0 -612.51,79.4 -875.01,238.2 -262.5,158.8 -471.53,371.07 -623.85,638.43 -153.94,268.99 -231.72,565.52 -231.72,892.84 0,327.32 79.4,623.85 238.2,891.21 158.8,267.36 369.45,479.64 631.95,636.82 262.5,158.8 549.31,236.58 860.43,236.58z"/>
   <path class="fil0" d="M15259.22 1346.54l0 1200.71 1424.32 0 0 816.68 -1424.32 0 0 4044.49 -816.68 0 0 -4044.49 -627.09 0 0 -816.68 627.09 0 0 -1200.71c0,-249.54 61.57,-474.78 183.1,-678.94 121.53,-202.55 285.19,-364.59 490.98,-486.12 205.79,-121.53 431.02,-181.48 677.32,-181.48 181.48,0 358.11,35.65 529.87,108.57 171.76,72.92 324.08,181.48 456.95,324.08l-583.34 578.48c-45.37,-61.57 -105.32,-108.57 -176.62,-144.21 -72.92,-32.41 -149.08,-50.23 -226.85,-50.23 -145.84,0 -270.6,51.85 -375.93,155.56 -105.32,103.71 -158.8,228.47 -158.8,374.31z"/>
   <polygon class="fil0" points="20149.56,3363.93 19046.07,3363.93 19041.21,7408.43 18224.54,7408.43 18229.4,3363.93 17393.28,3363.93 17393.28,2547.25 18229.4,2547.25 18224.54,1020.85 19041.21,1020.85 19046.07,2547.25 20149.56,2547.25 "/>
   <path class="fil1" d="M21394.02 1754.88c-129.63,0 -238.2,-42.13 -325.7,-126.39 -87.5,-84.26 -131.25,-189.59 -131.25,-315.98 0,-126.39 43.75,-231.72 131.25,-315.98 87.5,-84.26 194.45,-126.39 320.84,-126.39 126.39,0 233.34,42.13 320.84,126.39 87.5,84.26 131.25,189.59 131.25,315.98 0,126.39 -43.75,231.72 -128.01,315.98 -85.88,84.26 -192.83,126.39 -319.22,126.39z"/>
   <polygon class="fil0" points="20975.96,2547.25 21787.78,2547.25 21792.64,7408.43 20975.96,7408.43 "/>
   <path class="fil0" d="M25161.43 7544.54c-469.91,0 -897.7,-115.05 -1284.97,-345.14 -387.27,-230.1 -696.77,-539.59 -926.86,-928.49 -230.1,-388.89 -345.14,-819.92 -345.14,-1293.07 0,-353.25 66.44,-683.8 199.31,-991.68 132.87,-307.88 315.98,-580.1 552.55,-815.06 233.34,-234.96 505.56,-418.06 813.44,-550.93 307.87,-132.87 638.43,-199.31 991.68,-199.31 375.93,0 703.25,89.12 980.34,264.12 277.09,176.62 497.46,408.34 662.74,693.53l0 -831.26 816.68 0 0 7291.76 -816.68 0 0 -3252.12c-165.28,285.19 -385.65,516.9 -662.74,691.91 -277.09,176.62 -604.4,265.75 -980.34,265.75zm9.72 -4331.31c-320.84,0 -612.51,79.4 -875.01,238.2 -262.5,158.8 -471.53,371.07 -623.85,638.43 -153.94,268.99 -231.72,563.9 -231.72,887.98 0,330.56 79.4,628.71 236.58,896.07 155.56,267.36 366.21,479.64 628.71,636.82 262.5,158.8 550.93,236.58 865.29,236.58 320.84,0 597.92,-79.4 831.26,-238.2 233.34,-158.8 414.82,-372.69 542.83,-641.67 128.01,-268.99 191.21,-565.52 191.21,-889.59 0,-327.32 -63.2,-623.85 -191.21,-889.59 -128.01,-265.75 -309.5,-478.02 -544.45,-636.81 -234.96,-158.8 -512.04,-238.2 -829.64,-238.2z"/>
  </g>
 </g>
</svg>
