<?xml version="1.0" encoding="UTF-8"?>
<!DOCTYPE svg PUBLIC "-//W3C//DTD SVG 1.1//EN" "http://www.w3.org/Graphics/SVG/1.1/DTD/svg11.dtd">
<!-- Creator: CorelDRAW -->
<svg xmlns="http://www.w3.org/2000/svg" xml:space="preserve" width="14.0953cm" height="5.0209cm" version="1.1" style="shape-rendering:geometricPrecision; text-rendering:geometricPrecision; image-rendering:optimizeQuality; fill-rule:evenodd; clip-rule:evenodd"
viewBox="0 0 214.49 76.4"
 xmlns:xlink="http://www.w3.org/1999/xlink"
 xmlns:xodm="http://www.corel.com/coreldraw/odm/2003">
 <defs>
  <style type="text/css">
   <![CDATA[
    .fil0 {fill:#FEFEFE;fill-rule:nonzero}
    .fil1 {fill:#F5874F;fill-rule:nonzero}
   ]]>
  </style>
 </defs>
 <g id="Layer_x0020_1">
  <metadata id="CorelCorpID_0Corel-Layer"/>
  <g id="_2568182596064">
   <path class="fil0" d="M28.27 47.56l5.66 3.06c-1.71,2.39 -3.88,4.3 -6.51,5.74 -2.63,1.43 -5.49,2.15 -8.56,2.15 -3.47,0 -6.63,-0.89 -9.49,-2.68 -2.86,-1.79 -5.13,-4.19 -6.83,-7.2 -1.7,-2.99 -2.55,-6.33 -2.55,-9.98 0,-2.77 0.49,-5.35 1.47,-7.76 0.98,-2.4 2.33,-4.52 4.06,-6.34 1.71,-1.82 3.72,-3.25 6.01,-4.28 2.29,-1.03 4.73,-1.55 7.32,-1.55 3.07,0 5.93,0.72 8.56,2.15 2.63,1.43 4.79,3.36 6.51,5.78l-5.66 3.06c-1.21,-1.48 -2.64,-2.63 -4.3,-3.44 -1.66,-0.81 -3.36,-1.21 -5.1,-1.21 -2.34,0 -4.45,0.62 -6.35,1.86 -1.91,1.25 -3.41,2.91 -4.52,4.97 -1.11,2.06 -1.66,4.32 -1.66,6.76 0,2.44 0.57,4.68 1.69,6.73 1.11,2.05 2.63,3.7 4.53,4.93 1.9,1.23 4,1.85 6.32,1.85 1.86,0 3.61,-0.43 5.25,-1.28 1.64,-0.86 3.02,-1.96 4.15,-3.32z"/>
   <path class="fil0" d="M40.73 57.53l0 -37.75 6.34 0 0 4.72c1.33,-1.76 3.02,-3.17 5.06,-4.22 2.04,-1.03 4.25,-1.56 6.64,-1.56 1.46,0 2.87,0.19 4.23,0.57l-2.57 6.34c-1.03,-0.33 -2.04,-0.49 -3.02,-0.49 -1.89,0 -3.61,0.45 -5.18,1.37 -1.57,0.92 -2.83,2.16 -3.76,3.72 -0.93,1.56 -1.4,3.3 -1.4,5.21l0 22.08 -6.34 0z"/>
   <path class="fil0" d="M96.03 19.78l6.34 0 0 37.75 -6.34 0 -0.26 -6.38c-1.18,2.19 -2.81,3.96 -4.88,5.32 -2.08,1.36 -4.55,2.04 -7.42,2.04 -2.77,0 -5.36,-0.53 -7.78,-1.57 -2.42,-1.04 -4.55,-2.49 -6.39,-4.34 -1.86,-1.85 -3.3,-3.98 -4.33,-6.39 -1.03,-2.42 -1.55,-5.02 -1.55,-7.81 0,-2.69 0.5,-5.23 1.51,-7.63 1.01,-2.39 2.4,-4.49 4.22,-6.29 1.79,-1.8 3.88,-3.21 6.24,-4.23 2.37,-1.01 4.91,-1.52 7.63,-1.52 2.97,0 5.57,0.7 7.81,2.09 2.24,1.4 4.05,3.21 5.44,5.42l-0.23 -6.46zm-12.68 32.58c2.49,0 4.66,-0.6 6.48,-1.84 1.82,-1.22 3.23,-2.87 4.23,-4.96 0.99,-2.09 1.48,-4.39 1.48,-6.91 0,-2.57 -0.5,-4.88 -1.51,-6.97 -1.01,-2.08 -2.42,-3.72 -4.24,-4.95 -1.82,-1.22 -3.98,-1.82 -6.44,-1.82 -2.49,0 -4.76,0.62 -6.79,1.85 -2.04,1.23 -3.66,2.88 -4.84,4.96 -1.2,2.09 -1.8,4.39 -1.8,6.93 0,2.54 0.62,4.84 1.85,6.92 1.23,2.08 2.87,3.72 4.91,4.95 2.04,1.23 4.27,1.84 6.68,1.84z"/>
   <path class="fil0" d="M118.5 10.46l0 9.32 11.06 0 0 6.34 -11.06 0 0 31.41 -6.34 0 0 -31.41 -4.87 0 0 -6.34 4.87 0 0 -9.32c0,-1.94 0.48,-3.69 1.42,-5.27 0.94,-1.57 2.21,-2.83 3.81,-3.77 1.6,-0.94 3.35,-1.41 5.26,-1.41 1.41,0 2.78,0.28 4.11,0.84 1.33,0.57 2.52,1.41 3.55,2.52l-4.53 4.49c-0.35,-0.48 -0.82,-0.84 -1.37,-1.12 -0.57,-0.25 -1.16,-0.39 -1.76,-0.39 -1.13,0 -2.1,0.4 -2.92,1.21 -0.82,0.81 -1.23,1.77 -1.23,2.91z"/>
   <polygon class="fil0" points="156.47,26.12 147.9,26.12 147.86,57.53 141.52,57.53 141.56,26.12 135.07,26.12 135.07,19.78 141.56,19.78 141.52,7.93 147.86,7.93 147.9,19.78 156.47,19.78 "/>
   <path class="fil1" d="M166.13 13.63c-1.01,0 -1.85,-0.33 -2.53,-0.98 -0.68,-0.65 -1.02,-1.47 -1.02,-2.45 0,-0.98 0.34,-1.8 1.02,-2.45 0.68,-0.65 1.51,-0.98 2.49,-0.98 0.98,0 1.81,0.33 2.49,0.98 0.68,0.65 1.02,1.47 1.02,2.45 0,0.98 -0.34,1.8 -0.99,2.45 -0.67,0.65 -1.5,0.98 -2.48,0.98z"/>
   <polygon class="fil0" points="162.89,19.78 169.19,19.78 169.23,57.53 162.89,57.53 "/>
   <path class="fil0" d="M195.39 58.59c-3.65,0 -6.97,-0.89 -9.98,-2.68 -3.01,-1.79 -5.41,-4.19 -7.2,-7.21 -1.79,-3.02 -2.68,-6.37 -2.68,-10.04 0,-2.74 0.52,-5.31 1.55,-7.7 1.03,-2.39 2.45,-4.5 4.29,-6.33 1.81,-1.82 3.93,-3.25 6.32,-4.28 2.39,-1.03 4.96,-1.55 7.7,-1.55 2.92,0 5.46,0.69 7.61,2.05 2.15,1.37 3.86,3.17 5.15,5.39l0 -6.46 6.34 0 0 56.62 -6.34 0 0 -25.25c-1.28,2.21 -2.99,4.01 -5.15,5.37 -2.15,1.37 -4.69,2.06 -7.61,2.06zm0.08 -33.63c-2.49,0 -4.76,0.62 -6.79,1.85 -2.04,1.23 -3.66,2.88 -4.84,4.96 -1.2,2.09 -1.8,4.38 -1.8,6.9 0,2.57 0.62,4.88 1.84,6.96 1.21,2.08 2.84,3.72 4.88,4.95 2.04,1.23 4.28,1.84 6.72,1.84 2.49,0 4.64,-0.62 6.46,-1.85 1.81,-1.23 3.22,-2.89 4.22,-4.98 0.99,-2.09 1.48,-4.39 1.48,-6.91 0,-2.54 -0.49,-4.84 -1.48,-6.91 -0.99,-2.06 -2.4,-3.71 -4.23,-4.95 -1.82,-1.23 -3.98,-1.85 -6.44,-1.85z"/>
  </g>
 </g>
</svg>
